<svg width="40" height="40" viewBox="0 0 40 40" fill="none" xmlns="http://www.w3.org/2000/svg">
<g clip-path="url(#clip0_21:14)">
<path d="M14.9736 4.32999V33.575L21.4973 35.6762V11.1462C21.4973 9.99248 22.0061 9.22499 22.8261 9.49124C23.8811 9.79749 24.0898 10.8525 24.0898 12.005V21.7962C28.1598 23.7825 31.3611 21.79 31.3611 16.5425C31.3611 11.1462 29.4861 8.74873 23.9661 6.82874C21.7848 6.07873 17.7473 4.84874 14.9811 4.32874L14.9736 4.32999ZM22.7348 31.4L33.2298 27.6037C34.4198 27.175 34.6036 26.5637 33.6398 26.2437C32.6636 25.925 30.9111 26.0087 29.7061 26.445L22.7011 28.945V24.9662L23.0973 24.83C23.0973 24.83 25.1023 24.1287 27.9536 23.8012C30.7798 23.5025 34.2636 23.8525 37.0173 24.9012C40.0973 25.905 40.4223 27.3562 39.6411 28.36C38.8661 29.355 36.9398 30.085 36.9398 30.085L22.7011 35.26V31.4312L22.7348 31.4ZM3.01484 31.0037C-0.156411 30.0925 -0.676411 28.2237 0.761089 27.1287C2.09609 26.1587 4.35484 25.3787 4.35484 25.3787L13.7161 22.025V25.8787L7.01109 28.3337C5.83234 28.7837 5.63734 29.3887 6.61484 29.7075C7.59109 30.0337 9.34109 29.9625 10.5148 29.5125L13.7436 28.3337V31.79C13.5486 31.8362 13.3198 31.8612 13.0923 31.9137C9.86359 32.4625 6.43859 32.24 3.03359 31.1137L3.01484 31.0037Z" fill="white"/>
</g>
<defs>
<clipPath id="clip0_21:14">
<rect width="40" height="40" fill="white"/>
</clipPath>
</defs>
</svg>
