<svg width="32" height="32" viewBox="0 0 32 32" fill="none" xmlns="http://www.w3.org/2000/svg">
<path d="M16 2.6001C8.63999 2.6001 2.66666 8.57343 2.66666 15.9334C2.66666 23.2934 8.63999 29.2668 16 29.2668H22.6667V26.6001H16C10.2133 26.6001 5.33332 21.7201 5.33332 15.9334C5.33332 10.1468 10.2133 5.26676 16 5.26676C21.7867 5.26676 26.6667 10.1468 26.6667 15.9334V17.8401C26.6667 18.8934 25.72 19.9334 24.6667 19.9334C23.6133 19.9334 22.6667 18.8934 22.6667 17.8401V15.9334C22.6667 12.2534 19.68 9.26676 16 9.26676C12.32 9.26676 9.33332 12.2534 9.33332 15.9334C9.33332 19.6134 12.32 22.6001 16 22.6001C17.84 22.6001 19.52 21.8534 20.72 20.6401C21.5867 21.8268 23.08 22.6001 24.6667 22.6001C27.2933 22.6001 29.3333 20.4668 29.3333 17.8401V15.9334C29.3333 8.57343 23.36 2.6001 16 2.6001V2.6001ZM16 19.9334C13.7867 19.9334 12 18.1468 12 15.9334C12 13.7201 13.7867 11.9334 16 11.9334C18.2133 11.9334 20 13.7201 20 15.9334C20 18.1468 18.2133 19.9334 16 19.9334Z" fill="white"/>
</svg>
