<svg width="32" height="32" viewBox="0 0 32 32" fill="none" xmlns="http://www.w3.org/2000/svg">
<path fill-rule="evenodd" clip-rule="evenodd" d="M9.95334 1.4215C11.5173 1.3495 12.016 1.3335 16 1.3335C19.984 1.3335 20.4827 1.35083 22.0453 1.4215C23.608 1.49216 24.6747 1.7415 25.608 2.10283C26.5853 2.47216 27.472 3.0495 28.2053 3.79616C28.952 4.52816 29.528 5.4135 29.896 6.39216C30.2587 7.3255 30.5067 8.39216 30.5787 9.95216C30.6507 11.5188 30.6667 12.0175 30.6667 16.0002C30.6667 19.9842 30.6493 20.4828 30.5787 22.0468C30.508 23.6068 30.2587 24.6735 29.896 25.6068C29.528 26.5856 28.951 27.4724 28.2053 28.2055C27.472 28.9522 26.5853 29.5282 25.608 29.8962C24.6747 30.2588 23.608 30.5068 22.048 30.5788C20.4827 30.6508 19.984 30.6668 16 30.6668C12.016 30.6668 11.5173 30.6495 9.95334 30.5788C8.39334 30.5082 7.32668 30.2588 6.39334 29.8962C5.41457 29.5281 4.52777 28.9512 3.79468 28.2055C3.04852 27.4731 2.4711 26.5867 2.10268 25.6082C1.74134 24.6748 1.49334 23.6082 1.42134 22.0482C1.34934 20.4815 1.33334 19.9828 1.33334 16.0002C1.33334 12.0162 1.35068 11.5175 1.42134 9.95483C1.49201 8.39216 1.74134 7.3255 2.10268 6.39216C2.47164 5.4136 3.0495 4.52725 3.79601 3.79483C4.52806 3.04883 5.41397 2.47142 6.39201 2.10283C7.32534 1.7415 8.39201 1.4935 9.95201 1.4215H9.95334ZM21.9267 4.0615C20.38 3.99083 19.916 3.97616 16 3.97616C12.084 3.97616 11.62 3.99083 10.0733 4.0615C8.64268 4.12683 7.86668 4.3655 7.34934 4.56683C6.66534 4.8335 6.17601 5.1495 5.66268 5.66283C5.17607 6.13623 4.80158 6.71254 4.56668 7.3495C4.36534 7.86683 4.12668 8.64283 4.06134 10.0735C3.99068 11.6202 3.97601 12.0842 3.97601 16.0002C3.97601 19.9162 3.99068 20.3802 4.06134 21.9268C4.12668 23.3575 4.36534 24.1335 4.56668 24.6508C4.80134 25.2868 5.17601 25.8642 5.66268 26.3375C6.13601 26.8242 6.71334 27.1988 7.34934 27.4335C7.86668 27.6348 8.64268 27.8735 10.0733 27.9388C11.62 28.0095 12.0827 28.0242 16 28.0242C19.9173 28.0242 20.38 28.0095 21.9267 27.9388C23.3573 27.8735 24.1333 27.6348 24.6507 27.4335C25.3347 27.1668 25.824 26.8508 26.3373 26.3375C26.824 25.8642 27.1987 25.2868 27.4333 24.6508C27.6347 24.1335 27.8733 23.3575 27.9387 21.9268C28.0093 20.3802 28.024 19.9162 28.024 16.0002C28.024 12.0842 28.0093 11.6202 27.9387 10.0735C27.8733 8.64283 27.6347 7.86683 27.4333 7.3495C27.1667 6.6655 26.8507 6.17616 26.3373 5.66283C25.8639 5.17626 25.2876 4.80178 24.6507 4.56683C24.1333 4.3655 23.3573 4.12683 21.9267 4.0615V4.0615ZM14.1267 20.5215C15.1729 20.957 16.3378 21.0158 17.4226 20.6878C18.5073 20.3598 19.4445 19.6654 20.0742 18.7232C20.7038 17.7809 20.9867 16.6493 20.8747 15.5216C20.7627 14.3939 20.2627 13.3401 19.46 12.5402C18.9483 12.0288 18.3296 11.6372 17.6485 11.3937C16.9673 11.1501 16.2406 11.0606 15.5207 11.1316C14.8008 11.2027 14.1055 11.4324 13.4851 11.8043C12.8646 12.1763 12.3343 12.6812 11.9324 13.2826C11.5305 13.8841 11.2669 14.5672 11.1607 15.2828C11.0545 15.9983 11.1082 16.7286 11.3181 17.4209C11.5279 18.1131 11.8887 18.7503 12.3743 19.2865C12.86 19.8226 13.4584 20.2444 14.1267 20.5215ZM10.6693 10.6695C11.3694 9.96946 12.2004 9.41417 13.1151 9.03531C14.0297 8.65646 15.01 8.46146 16 8.46146C16.99 8.46146 17.9703 8.65646 18.8849 9.03531C19.7996 9.41417 20.6306 9.96946 21.3307 10.6695C22.0307 11.3695 22.586 12.2006 22.9649 13.1152C23.3437 14.0299 23.5387 15.0102 23.5387 16.0002C23.5387 16.9902 23.3437 17.9705 22.9649 18.8851C22.586 19.7997 22.0307 20.6308 21.3307 21.3308C19.9169 22.7446 17.9994 23.5389 16 23.5389C14.0006 23.5389 12.0831 22.7446 10.6693 21.3308C9.25556 19.917 8.46131 17.9995 8.46131 16.0002C8.46131 14.0008 9.25556 12.0833 10.6693 10.6695V10.6695ZM25.2107 9.58416C25.3841 9.42052 25.523 9.22374 25.6191 9.00546C25.7151 8.78718 25.7664 8.55185 25.7699 8.3134C25.7734 8.07495 25.729 7.83823 25.6393 7.61724C25.5497 7.39626 25.4166 7.19551 25.248 7.02688C25.0793 6.85825 24.8786 6.72517 24.6576 6.63552C24.4366 6.54587 24.1999 6.50146 23.9614 6.50494C23.723 6.50842 23.4877 6.5597 23.2694 6.65576C23.0511 6.75181 22.8543 6.89069 22.6907 7.06416C22.3724 7.40153 22.1982 7.84966 22.2049 8.3134C22.2117 8.77715 22.3989 9.22 22.7269 9.54795C23.0548 9.8759 23.4977 10.0631 23.9614 10.0699C24.4252 10.0767 24.8733 9.90242 25.2107 9.58416V9.58416Z" fill="white"/>
</svg>
