<svg width="25" height="26" viewBox="0 0 25 26" fill="none" xmlns="http://www.w3.org/2000/svg">
<g clip-path="url(#clip0_71:112)">
<path d="M4.27242 22.407C6.54653 24.4058 9.47211 25.5056 12.4998 25.5C15.6529 25.5 18.5302 24.3367 20.731 22.407C22.6841 20.4172 16.2349 13.3375 12.4998 10.5172C8.76851 13.3367 2.31539 20.4172 4.27242 22.407V22.407ZM15.8974 7.40547C18.5013 10.4898 23.6935 18.1469 22.2287 20.8531C24.0262 18.6325 25.0047 15.8609 24.9998 13.0039C24.9998 9.525 23.5802 6.37578 21.281 4.11328C21.281 4.11328 21.2521 4.08828 21.1959 4.06875C21.1014 4.03625 21.0019 4.02116 20.9021 4.02422C20.2888 4.02422 18.8357 4.475 15.8982 7.40547H15.8974ZM3.80367 4.06875C3.74742 4.08828 3.71851 4.11328 3.71382 4.11328C2.53486 5.27397 1.5991 6.65803 0.961258 8.18457C0.323413 9.7111 -0.00372095 11.3495 -0.00102102 13.0039C-0.00102102 15.9781 1.03648 18.7047 2.77007 20.8484C1.31382 18.1391 6.49742 10.4852 9.10523 7.40469C6.16773 4.47031 4.7107 4.02344 4.09664 4.02344C3.99633 4.0187 3.89617 4.03548 3.80289 4.07266L3.80367 4.06875ZM12.4998 4.19922C12.4998 4.19922 9.43179 2.40469 7.03492 2.31875C6.09507 2.28672 5.52164 2.62422 5.45132 2.67266C7.6857 1.17187 10.0615 0.5 12.4826 0.5H12.499C14.9326 0.5 17.2959 1.17187 19.5466 2.67266C19.4771 2.62344 18.9068 2.28594 17.963 2.31875C15.5662 2.40391 12.4982 4.19453 12.4982 4.19453L12.4998 4.19922Z" fill="white" fill-opacity="0.7"/>
</g>
<defs>
<clipPath id="clip0_71:112">
<rect width="25" height="25" fill="white" transform="translate(0 0.5)"/>
</clipPath>
</defs>
</svg>
