<svg width="32" height="32" viewBox="0 0 32 32" fill="none" xmlns="http://www.w3.org/2000/svg">
<path d="M18.901 32H23.802C28.302 32 32 28.302 32 23.802V8.198C32 3.698 28.302 0 23.802 0H18.802C18.703 0 18.599 0.099 18.599 0.198V31.802C18.599 31.901 18.698 32 18.901 32ZM25 14.401C26.802 14.401 28.198 15.901 28.198 17.599C28.198 19.401 26.698 20.797 25 20.797C23.198 20.797 21.802 19.401 21.802 17.599C21.698 15.802 23.198 14.401 25 14.401ZM15.198 0H8.198C3.698 0 0 3.698 0 8.198V23.802C0 28.302 3.698 32 8.198 32H15.198C15.297 32 15.401 31.901 15.401 31.802V0.198C15.401 0.099 15.302 0 15.198 0ZM12.901 29.401H8.198C7.4624 29.4022 6.73379 29.2582 6.05395 28.9772C5.37412 28.6963 4.75642 28.2839 4.23627 27.7637C3.71611 27.2436 3.30374 26.6259 3.02278 25.946C2.74183 25.2662 2.59781 24.5376 2.599 23.802V8.198C2.59781 7.4624 2.74183 6.73379 3.02278 6.05395C3.30374 5.37412 3.71611 4.75642 4.23627 4.23627C4.75642 3.71611 5.37412 3.30374 6.05395 3.02278C6.73379 2.74183 7.4624 2.59781 8.198 2.599H12.802L12.901 29.401ZM5 9.599C5 11.297 6.302 12.599 8 12.599C9.698 12.599 11 11.297 11 9.599C11 7.901 9.698 6.599 8 6.599C6.302 6.599 5 7.901 5 9.599Z" fill="white" fill-opacity="0.7"/>
</svg>
