<svg width="40" height="40" viewBox="0 0 40 40" fill="none" xmlns="http://www.w3.org/2000/svg">
<g clip-path="url(#clip0_21:16)">
<path d="M6.83655 35.0513C10.4751 38.2493 15.1561 40.009 20.0003 40C25.0453 40 29.649 38.1388 33.1703 35.0513C36.2953 31.8675 25.9765 20.54 20.0003 16.0275C14.0303 20.5387 3.7053 31.8675 6.83655 35.0513V35.0513ZM25.4366 11.0487C29.6028 15.9837 37.9103 28.235 35.5665 32.565C38.4427 29.012 40.0083 24.5774 40.0003 20.0062C40.0003 14.44 37.729 9.40125 34.0503 5.78125C34.0503 5.78125 34.004 5.74125 33.914 5.71C33.763 5.658 33.6037 5.63386 33.444 5.63875C32.4628 5.63875 30.1378 6.36 25.4378 11.0487H25.4366ZM6.08655 5.71C5.99655 5.74125 5.9503 5.78125 5.9428 5.78125C4.05646 7.63835 2.55925 9.85285 1.5387 12.2953C0.518145 14.7378 -0.00526992 17.3592 -0.000950039 20.0062C-0.000950039 24.765 1.65905 29.1275 4.4328 32.5575C2.1028 28.2225 10.3965 15.9763 14.569 11.0475C9.86905 6.3525 7.5378 5.6375 6.5553 5.6375C6.39481 5.62993 6.23456 5.65678 6.0853 5.71625L6.08655 5.71ZM20.0003 5.91875C20.0003 5.91875 15.0916 3.0475 11.2566 2.91C9.7528 2.85875 8.8353 3.39875 8.7228 3.47625C12.2978 1.075 16.099 0 19.9728 0H19.999C23.8928 0 27.674 1.075 31.2753 3.47625C31.164 3.3975 30.2515 2.8575 28.7415 2.91C24.9065 3.04625 19.9978 5.91125 19.9978 5.91125L20.0003 5.91875Z" fill="white"/>
</g>
<defs>
<clipPath id="clip0_21:16">
<rect width="40" height="40" fill="white"/>
</clipPath>
</defs>
</svg>
