<svg width="32" height="32" viewBox="0 0 32 32" fill="none" xmlns="http://www.w3.org/2000/svg">
<path d="M29 6.00024V6.17024C27.87 25.8202 11.29 28.6102 6.23 29.0002C5.83658 29.0317 5.44082 28.9852 5.06541 28.8634C4.69 28.7416 4.3423 28.5469 4.04225 28.2905C3.7422 28.0341 3.49569 27.7211 3.31684 27.3692C3.13799 27.0174 3.03032 26.6337 3 26.2402L3 20.7302C2.99961 20.3297 3.11951 19.9382 3.34416 19.6066C3.56881 19.275 3.88787 19.0184 4.26 18.8702L8 17.3502C8.36355 17.2039 8.76208 17.1676 9.14609 17.2458C9.5301 17.324 9.88267 17.5133 10.16 17.7902L12.31 19.9202C14.2007 19.5875 15.9437 18.6821 17.303 17.3263C18.6622 15.9706 19.5723 14.2301 19.91 12.3402L17.76 10.1702C17.4862 9.88874 17.3013 9.53285 17.2283 9.14696C17.1554 8.76106 17.1977 8.36225 17.35 8.00024L18.86 4.23024C19.0129 3.86372 19.2714 3.55101 19.6027 3.33196C19.9339 3.11291 20.3229 2.99743 20.72 3.00024H26C26.7956 3.00024 27.5587 3.31631 28.1213 3.87892C28.6839 4.44153 29 5.20459 29 6.00024ZM5 26.0002C5 26.2655 5.10536 26.5198 5.29289 26.7073C5.48043 26.8949 5.73478 27.0002 6 27.0002H6.08C12 26.5402 26 23.5902 27 6.06024C27.0081 5.92887 26.9902 5.79718 26.9473 5.67274C26.9045 5.5483 26.8374 5.43354 26.7501 5.33506C26.6628 5.23658 26.5568 5.15631 26.4384 5.09886C26.32 5.0414 26.1914 5.00789 26.06 5.00024H20.72L19.21 8.77024L22.06 11.6402L22 12.1202C20.91 20.8202 12.21 22.0002 12.12 22.0002L11.64 22.0602L8.77 19.2202L5 20.7202V26.0002Z" fill="white"/>
</svg>
