<svg width="25" height="26" viewBox="0 0 25 26" fill="none" xmlns="http://www.w3.org/2000/svg">
<g clip-path="url(#clip0_71:110)">
<path d="M9.35852 3.20635V21.4845L13.4359 22.7978V7.4665C13.4359 6.74541 13.7538 6.26572 14.2663 6.43213C14.9257 6.62353 15.0562 7.28291 15.0562 8.00322V14.1228C17.5999 15.3642 19.6007 14.1188 19.6007 10.8392C19.6007 7.4665 18.4288 5.96807 14.9788 4.76807C13.6156 4.29932 11.0921 3.53057 9.36321 3.20557L9.35852 3.20635ZM14.2093 20.1251L20.7687 17.7524C21.5124 17.4845 21.6273 17.1024 21.0249 16.9024C20.4148 16.7032 19.3195 16.7556 18.5663 17.0282L14.1882 18.5907V16.104L14.4359 16.0188C14.4359 16.0188 15.689 15.5806 17.471 15.3759C19.2374 15.1892 21.4148 15.4079 23.1359 16.0634C25.0609 16.6907 25.264 17.5978 24.7757 18.2251C24.2913 18.847 23.0874 19.3032 23.0874 19.3032L14.1882 22.5376V20.1446L14.2093 20.1251ZM1.8843 19.8774C-0.0977264 19.3079 -0.422726 18.1399 0.475711 17.4556C1.31009 16.8493 2.7218 16.3618 2.7218 16.3618L8.57259 14.2657V16.6743L4.38196 18.2087C3.64524 18.4899 3.52337 18.8681 4.1343 19.0673C4.74446 19.2712 5.83821 19.2267 6.5718 18.9454L8.58977 18.2087V20.3688C8.4679 20.3978 8.32493 20.4134 8.18274 20.4462C6.16477 20.7892 4.02415 20.6501 1.89602 19.9462L1.8843 19.8774Z" fill="white" fill-opacity="0.7"/>
</g>
<defs>
<clipPath id="clip0_71:110">
<rect width="25" height="25" fill="white" transform="translate(0 0.5)"/>
</clipPath>
</defs>
</svg>
