<svg width="32" height="32" viewBox="0 0 32 32" fill="none" xmlns="http://www.w3.org/2000/svg">
<path d="M31.524 6.58293C30.4107 7.07627 29.2147 7.4096 27.9573 7.56027C29.2547 6.78399 30.2253 5.56222 30.688 4.12293C29.4691 4.84692 28.1351 5.35653 26.744 5.6296C25.8085 4.63075 24.5694 3.9687 23.2191 3.74623C21.8688 3.52376 20.4828 3.75332 19.2763 4.39927C18.0698 5.04522 17.1104 6.07141 16.5469 7.31854C15.9834 8.56566 15.8474 9.96393 16.16 11.2963C13.6902 11.1723 11.2742 10.5303 9.06856 9.41214C6.86296 8.29395 4.91712 6.72448 3.35733 4.8056C2.824 5.7256 2.51733 6.79227 2.51733 7.92827C2.51673 8.95093 2.76857 9.95792 3.2505 10.8599C3.73243 11.7619 4.42954 12.531 5.28 13.0989C4.2937 13.0675 3.32916 12.801 2.46666 12.3216V12.4016C2.46656 13.8359 2.96271 15.2261 3.87091 16.3363C4.77911 17.4464 6.04342 18.2082 7.44933 18.4923C6.53437 18.7399 5.57511 18.7764 4.644 18.5989C5.04066 19.8331 5.81332 20.9123 6.85382 21.6855C7.89431 22.4587 9.15055 22.8872 10.4467 22.9109C8.24644 24.6381 5.52918 25.5751 2.732 25.5709C2.2365 25.5711 1.74143 25.5421 1.24933 25.4843C4.08863 27.3098 7.39378 28.2787 10.7693 28.2749C22.196 28.2749 28.4427 18.8109 28.4427 10.6029C28.4427 10.3363 28.436 10.0669 28.424 9.80027C29.6391 8.92156 30.6879 7.83346 31.5213 6.58693L31.524 6.58293V6.58293Z" fill="white"/>
</svg>
